<svg width="328" height="246" xmlns="http://www.w3.org/2000/svg" xmlns:xlink="http://www.w3.org/1999/xlink"><svg width="50.33" height="39.49" viewBox="-1 -1 50.33 39.49" x="246" y="82" xmlns="http://www.w3.org/2000/svg"><g data-name="Layer 2"><g data-name="Layer 1"><path d="M9.29 15.79v5.77q15.83 8.78 30.32 0V15.4" fill="none" stroke="#371447" stroke-width="1.04"/><path fill="#9575cd" fill-rule="evenodd" d="M24.17.56L.53 9.26v.28l23.64 9.68 23.62-9.68.01-.34L24.17.56z"/><path fill="none" stroke="#371447" stroke-width="1.04" d="M24.17.56L.53 9.26v.28l23.64 9.68 23.62-9.68.01-.34L24.17.56z"/><path d="M36.46 23.81h-1.52V15.5a.63.63 0 000-.27 2.17 2.17 0 00-.43-.33L24.35 9.63l.7-1.36 10.23 5.3a2.79 2.79 0 01.94.82 1.81 1.81 0 01.22 1.18z" fill="#371447"/><path d="M34.34 23l.78.55a7 7 0 00-.68 7l-.89.34a8 8 0 01.79-7.89m2.2 0l1 .07c-.24 3.12.67 4.75 2.73 5.11l-.16.94c-2.62-.45-3.79-2.56-3.52-6.12" fill="#371447"/><path d="M35.11 23.75l.86.41a5.65 5.65 0 00.46 5.95l-.79.53a6.57 6.57 0 01-.53-6.89" fill="#371447"/><path d="M36 23.2l.93.22c-.69 3-.22 4.83 1.36 5.61l-.43.86c-2.05-1-2.64-3.3-1.86-6.69" fill="#371447"/><path d="M35.82 21.33a1.64 1.64 0 11-1.6 1.67 1.62 1.62 0 011.6-1.64" fill="#9575cd" fill-rule="evenodd"/><path d="M35.82 21.33a1.64 1.64 0 11-1.6 1.67 1.62 1.62 0 011.6-1.67z" fill="none" stroke="#371447" stroke-width="1.04"/><path d="M24.63 7.7c2.34 0 4.24.59 4.24 1.32s-1.9 1.32-4.24 1.32-4.24-.59-4.24-1.34 1.9-1.32 4.24-1.32" fill="#9575cd" fill-rule="evenodd"/><ellipse cx="24.63" cy="9.02" rx="4.24" ry="1.32" fill="none" stroke="#371447" stroke-width="1.04"/><path d="M22.12 37a1.46 1.46 0 01-.71-.14l-17.1-7.68A2.9 2.9 0 012.6 26.5" fill="none" stroke="#371447" stroke-width="1.04"/><path d="M25.21 33.46a2.84 2.84 0 00-1-1.72 2.9 2.9 0 00-4.09.45 2.94 2.94 0 00.41 4.11 2.9 2.9 0 004.09-.45" fill="none" stroke="#371447" stroke-width="1.04"/><path d="M15.5 32.05l2.89 1.27c1.46-1.65 2.95-2.39 4.47-2.24q1.5.3-17-7.57-3.28-.06-4 2.51.13 0 7.58 3.32" fill="none" stroke="#371447" stroke-width="1.04"/><path d="M16.9 28.06a9.1 9.1 0 00-.91-.55 5.45 5.45 0 00-1-.32 2.83 2.83 0 00-3.08 2.07 3.62 3.62 0 00-.25 1.37v.83a1.3 1.3 0 000 .28v.18a1.28 1.28 0 010 .36l-.08.2v.1a3.57 3.57 0 01-2.29 2h.2a2.88 2.88 0 00.77 0 2.7 2.7 0 00.31-.08.52.52 0 01.41.14c.24.29.11.59-.2.87l-.09.07a4.09 4.09 0 001.16 0A3.13 3.13 0 0014 33.69a3 3 0 00.14-2.06v-1.21c.1-1.16 1-2 2.78-2.36m-6.4 7" fill="#371447" fill-rule="evenodd"/><path d="M16.9 28.06h0a9.1 9.1 0 00-.91-.55 5.45 5.45 0 00-1-.32 2.83 2.83 0 00-3.08 2.07 3.62 3.62 0 00-.25 1.37v.83a1.3 1.3 0 000 .28v.18a1.28 1.28 0 010 .36l-.08.2v.1a3.57 3.57 0 01-2.29 2h.2a2.88 2.88 0 00.77 0 2.7 2.7 0 00.31-.08.52.52 0 01.41.14c.24.29.11.59-.2.87l-.09.07a4.09 4.09 0 001.16 0A3.13 3.13 0 0014 33.69a3 3 0 00.14-2.06v-1.21c.08-1.16.97-2.04 2.76-2.36z" fill="none" stroke="#371447" stroke-width=".57"/></g></g></svg><svg viewBox="-1 -1 47.73 33.55" width="47.73" height="33.55" x="246" y="160.91" xmlns="http://www.w3.org/2000/svg"><g data-name="Layer 2"><g data-name="Layer 1"><path d="M8.55 23.15q3-1.91 3.06-4.69a5.15 5.15 0 00-2.78-4.6L25.45 2.62 42.41 14v17.39H8.55zm5.76-6.36v11.77h6.86V16.79z" fill="#a1887f" fill-rule="evenodd"/><path d="M8.85 23.34v7.75h33.26V14.2L25.45 3 9.61 13.73c1.79 1.88 2.53 3.76 2.18 5.63a5.21 5.21 0 01-2.94 3.98z" fill="none" stroke="#371447" stroke-width=".6"/><path d="M45.17 14.09L25.48.36 7.68 12.6a4.22 4.22 0 011 .49 5.8 5.8 0 001.07.61L25.4 3l18 12.12zm-21.05 1.69h13.76v9.21H24.12zm-9.51 1.31h6.26v11.17h-6.26zm9.21 12.45h15.27M9 29.54h3.88m8.95-12.53h-8.19v-2.22h8.19" fill="none" stroke="#371447" stroke-width=".6"/><path fill="none" stroke="#371447" stroke-width=".6" d="M13.94 28.21h7.59v2.58h-7.59z"/><path d="M12.93 4.09v-.6l-.6.6zm0 0h3.19l.4-.6h-4.19v6.32l.61-.91zm-.6 0l.6-.6v.6zm.6 0h3.19l.4-.6h-4.19v6.32l.61-.91z" fill="#371447"/><g fill="none" stroke="#371447" stroke-width=".6"><ellipse cx="6.02" cy="18.38" rx="5.72" ry="5.66"/><path d="M6.12 31.39v-14.5m-.2 3.97l-2.21-1m4.22-1.98l-2 1.59"/></g><path d="M33.56 4.36a.88.88 0 01.92-.51 1.5 1.5 0 01.67.16 3 3 0 015.67-.87 2.45 2.45 0 011.31-.38 2.36 2.36 0 012.39 2.33 1.63 1.63 0 01-.82 1.4h-6M2.59 31.25h42.28" fill="none" stroke="#371447" stroke-width=".6"/><path d="M30.45 17.63l-3.33 3m7-3.23l-3.33 3m3.56-.04l-3.33 3" fill="none" stroke="#371447" stroke-linecap="square" stroke-width=".6"/></g></g></svg><svg width="47.91" height="39.42" viewBox="-1 -1 47.91 39.42" x="246" y="121.49" xmlns="http://www.w3.org/2000/svg"><g data-name="Layer 2"><g data-name="Layer 1"><path d="M26.78 2a16.85 16.85 0 00-10.67-.62 17 17 0 00-12 20.85" fill="none" stroke="#371447" stroke-width="1.57"/><path d="M.27 23.36l4.61 3.53a.47.47 0 00.73-.17l2.59-5.19c.23-.47-.15-1.09-.61-1l-7.2 1.68c-.46.11-.53.83-.12 1.15" fill="#371447"/><path d="M11.32 13.19c.11 2.38.17 4.86.2 7.45a35.23 35.23 0 01-.52 7.11 10.43 10.43 0 003.79.87 49.49 49.49 0 008-.25l2.14-.22c.73-.07 1.26-.1 1.72-.1a38.14 38.14 0 017.22.69c0-3.22-.05-5.76 0-7.63s.16-4.16.36-6.69a10.31 10.31 0 00-4.64-1.37 27.71 27.71 0 00-6.83.2h-.27a27.77 27.77 0 01-4.5.3q-3.94-.11-6.65-.39" fill="#b0f06b" fill-rule="evenodd"/><path d="M11.32 13.19c.11 2.38.17 4.86.2 7.45a35.23 35.23 0 01-.52 7.11 10.43 10.43 0 003.79.87 49.49 49.49 0 008-.25l2.14-.22c.73-.07 1.26-.1 1.72-.1a38.14 38.14 0 017.22.69c0-3.22-.05-5.76 0-7.63s.16-4.16.36-6.69a10.31 10.31 0 00-4.64-1.37 27.71 27.71 0 00-6.83.2h-.27a27.77 27.77 0 01-4.5.3q-3.99-.07-6.67-.36zm8.84 22.66a17 17 0 0021.5-20.65" fill="none" stroke="#371447" stroke-width="1.57"/><path d="M45.64 14.77l-4.46-3.42a.45.45 0 00-.7.16l-2.51 5c-.23.45.14 1.05.59.95l7-1.61a.65.65 0 00.11-1.12" fill="#371447"/><path d="M14.64 16.67v1.48c.58 0 1.38 0 2.39.06a6.36 6.36 0 00.06-1.42zm0 2.56v1.48c.58 0 1.38 0 2.39.05a6.26 6.26 0 00.06-1.41zm0 2.56v1.48c.58 0 1.38 0 2.39.05a6.36 6.36 0 00.06-1.42zm0 2.55v1.48c.58 0 1.38 0 2.39.06a6.36 6.36 0 00.06-1.42zm3.44-7.67v1.48c.59 0 1.38 0 2.39.06a6.36 6.36 0 00.06-1.42zm0 2.56v1.48c.59 0 1.38 0 2.39.05a6.26 6.26 0 00.06-1.41zm0 2.56v1.48c.59 0 1.38 0 2.39.05a6.36 6.36 0 00.06-1.42zm0 2.55v1.48c.59 0 1.38 0 2.39.06a6.36 6.36 0 00.06-1.42zm3.44-7.67v1.48q.89 0 2.4.06a6.36 6.36 0 00.08-1.42zm0 2.56v1.48c.59 0 1.39 0 2.4.05a6.26 6.26 0 00.08-1.41zm0 2.56v1.48c.59 0 1.39 0 2.4.05A6.36 6.36 0 0024 21.9zm0 2.55v1.48q.89 0 2.4.06a6.36 6.36 0 00.08-1.42zM25 16.67v1.48c.58 0 1.38 0 2.39.06a6.36 6.36 0 00.06-1.42zm0 2.56v1.48c.58 0 1.38 0 2.39.05a6.26 6.26 0 00.06-1.41zm0 2.56v1.48c.58 0 1.38 0 2.39.05a6.36 6.36 0 00.06-1.42zm3.41-5.12v1.48c.59 0 1.38 0 2.39.06a6.36 6.36 0 00.06-1.42zm0 2.56v1.48c.59 0 1.38 0 2.39.05a6.26 6.26 0 00.06-1.41zm0 2.56v1.48c.59 0 1.38 0 2.39.05a6.36 6.36 0 00.06-1.42z" fill="#371447" fill-rule="evenodd"/><path d="M14.14 10.74c-.09-1.15.26-1.87 1-2.17 1.18-.46 1.81 1.1 1.31 4.9m11.9-2.73c-.09-1.15.25-1.87 1-2.17 1.19-.46 1.82 1.1 1.31 4.9" fill="none" stroke="#371447" stroke-width="1.49"/></g></g></svg><svg width="45.73" height="34.93" viewBox="-1 -1 45.73 34.93" x="246" y="194.46" xmlns="http://www.w3.org/2000/svg"><g data-name="Layer 2"><g data-name="Layer 1"><path d="M14.79 32.06c5.48.65 12.67-3.69 12.74-3.74 7.53-3.8 11.68-3.34 13.12-3l-3.84-14.55c-6.66-.63-13.49 3.8-13.56 3.85-6.94 3.59-11.89 3.67-13.42 3.59z" fill="#d360e6" fill-rule="evenodd"/><path d="M14.79 32.06c5.48.65 12.67-3.69 12.74-3.74 7.53-3.8 11.68-3.34 13.12-3l-3.84-14.55c-6.66-.63-13.49 3.8-13.56 3.85-6.94 3.59-11.89 3.67-13.42 3.59z" fill="none" stroke="#371447" stroke-width="1.59"/><path d="M34 22.93l-.28-.93a3.72 3.72 0 01-1.67.07V20.9a3.26 3.26 0 001.63-.05c.52-.15.82-.46.72-.83s-.46-.49-1.2-.52c-1.07-.05-1.87-.31-2.13-1.21a1.82 1.82 0 011.08-2.12l-.25-.88.9-.27.23.82a3.42 3.42 0 011.41-.09v1.13A3.06 3.06 0 0033 17c-.6.17-.72.49-.64.75s.46.41 1.32.47c1.2.07 1.78.45 2 1.29a1.87 1.87 0 01-1.14 2.2l.27.95z" fill="#371447" fill-rule="evenodd"/><path d="M4 10a25.5 25.5 0 013 1.24 17.49 17.49 0 012.35 1.62M0 17.11a25.16 25.16 0 013.24.1 18.39 18.39 0 012.76.67m4.74-13.76a25.15 25.15 0 011.92 2.6 17.22 17.22 0 011.17 2.59m5.09-7.59a23.7 23.7 0 011.12 3 16.46 16.46 0 01.42 2.82M26.05.12a23.21 23.21 0 01.35 3.2 16.87 16.87 0 01-.28 2.84M34.24.12a23.42 23.42 0 01.07 3.22 17.61 17.61 0 01-.53 2.8M43 2.52a24.39 24.39 0 01-1.36 2.93 16.2 16.2 0 01-1.71 2.28" fill="none" stroke="#371447" stroke-width="1.59"/><path d="M15.13 22.13l.49 1.78q4.74-1.2 6.64-1.88A46.43 46.43 0 0028 19.42l-.45-1.7q-3.63 1.68-5.81 2.46t-6.61 1.95m.8 3.69l.48 1.77q4.74-1.2 6.65-1.88a16.33 16.33 0 003.37-1.49l-.43-1.7c-.84.37-2 .82-3.44 1.34s-3.65 1.18-6.61 2" fill="#371447" fill-rule="evenodd"/></g></g></svg><svg width="82" height="82" viewBox="-1 -1 82 82" xmlns="http://www.w3.org/2000/svg"><g fill="none" fill-rule="evenodd"><path d="M0 0h80v80H0z"/><path d="M28.819 14.181h20.758-20.758zm31.248 0h3.194a5.072 5.072 0 015.072 5.073v48.55H10v-48.55a5.072 5.072 0 015.072-5.073h44.995zM27.857 38l-3.55-9.038h-1.72L19.037 38h1.307a.592.592 0 00.556-.381l.675-1.844h3.744l.675 1.844a.568.568 0 00.562.381h1.3zm-5.85-3.413l1.1-2.993c.053-.138.109-.298.165-.482.056-.183.113-.38.172-.593a11.501 11.501 0 00.344 1.062l1.1 3.006h-2.882zm9.518.232h1.263c.587 0 1.1-.073 1.537-.219a3.05 3.05 0 001.094-.613c.291-.262.51-.576.656-.94a3.21 3.21 0 00.219-1.203c0-.421-.069-.809-.206-1.163a2.325 2.325 0 00-.638-.912 3.03 3.03 0 00-1.094-.594c-.441-.142-.964-.213-1.568-.213h-2.944V38h1.681v-3.181zm0-1.313v-3.244h1.263c.308 0 .577.037.806.11.229.073.418.178.569.316.15.137.262.304.337.5.075.195.113.414.113.656 0 .254-.038.484-.113.69a1.358 1.358 0 01-.337.525c-.15.144-.34.255-.57.332a2.527 2.527 0 01-.806.115h-1.262zm8.813.963h.718c.167 0 .293.023.378.069a.667.667 0 01.235.23l1.9 2.894a.76.76 0 00.26.25.738.738 0 00.371.088h1.513l-2.263-3.338a1.666 1.666 0 00-.55-.518c.317-.1.599-.234.847-.4a2.496 2.496 0 001.012-1.319c.09-.27.135-.558.135-.863a2.74 2.74 0 00-.197-1.053 2.063 2.063 0 00-.619-.822c-.281-.229-.642-.407-1.081-.534-.44-.127-.968-.19-1.584-.19h-2.757V38h1.682v-3.531zm0-1.207v-3h1.075c.62 0 1.082.123 1.384.37.302.245.453.597.453 1.056 0 .229-.037.44-.112.63a1.318 1.318 0 01-.341.498 1.6 1.6 0 01-.581.328 2.613 2.613 0 01-.829.119h-1.05zM49.68 38v-9.038h-1.687V38h1.687zm4.713-1.387v-7.65h-1.681V38h5.3v-1.387h-3.62zm-41.133 3.67v23.659h52.355v-23.66H13.26z" fill="#E65100"/><path d="M28.819 14.181h20.758-20.758zm0 0h20.758-20.758zm39.514 52.623l-1 1v-1h1zm-1 0v-47.55a4.072 4.072 0 00-4.072-4.073h-3.194v-1h3.194a5.072 5.072 0 015.072 5.073v48.55H10v-48.55a5.072 5.072 0 015.072-5.073H18.2v1h-3.128A4.072 4.072 0 0011 19.254v47.55h56.333zm-56.333 0v1l-1-1h1zm0 0v1l-1-1h1zm0 0h56.333v-47.55a4.072 4.072 0 00-4.072-4.073h-3.194v-1h3.194a5.072 5.072 0 015.072 5.073v48.55H10v-48.55a5.072 5.072 0 015.072-5.073H18.2v1h-3.128A4.072 4.072 0 0011 19.254v47.55zm57.333 0l-1 1v-1h1z" fill="#371447" fill-rule="nonzero"/><path fill="#371447" d="M30 14.18h19v1H30z"/><path d="M23.406 21.043v-1.086c-1 0-1.812-.812-1.812-1.812v-7.246a1.812 1.812 0 013.623 0v1.627h1.087V10.9a2.899 2.899 0 10-5.797 0v7.246c0 1.6 1.298 2.898 2.899 2.898zm0 0v-1.086c-1 0-1.812-.812-1.812-1.812v-7.246a1.812 1.812 0 013.623 0v1.627h1.087V10.9a2.899 2.899 0 10-5.797 0v7.246c0 1.6 1.298 2.898 2.899 2.898zm31.884 0v-1.086c-1 0-1.812-.812-1.812-1.812v-7.246a1.812 1.812 0 113.623 0v1.627h1.087V10.9a2.899 2.899 0 00-5.797 0v7.246c0 1.6 1.298 2.898 2.899 2.898zm0 0v-1.086c-1 0-1.812-.812-1.812-1.812v-7.246a1.812 1.812 0 113.623 0v1.627h1.087V10.9a2.899 2.899 0 00-5.797 0v7.246c0 1.6 1.298 2.898 2.899 2.898z" fill="#371447" fill-rule="nonzero"/><path d="M30.036 56.584h2.92v-8.4c0-.325.01-.667.03-1.025l-2.073 1.733a.735.735 0 01-.264.15.927.927 0 01-.264.04.782.782 0 01-.608-.28L29 47.737 33.394 44h2.023v12.584h2.59v1.844h-7.97v-1.844zM48.76 45.066c0 .352-.111.638-.334.857-.222.22-.593.329-1.11.329h-3.967l-.518 3.009a8.982 8.982 0 011.784-.2c.757 0 1.423.114 1.998.34a4.11 4.11 0 011.45.936c.391.399.687.865.886 1.4.2.535.299 1.11.299 1.729 0 .763-.134 1.46-.403 2.092a4.734 4.734 0 01-1.121 1.62 5.047 5.047 0 01-1.7 1.04 6.03 6.03 0 01-2.136.369 5.74 5.74 0 01-1.286-.14 6.377 6.377 0 01-2.94-1.554l.758-1.046a.744.744 0 01.638-.339c.166 0 .334.053.503.16.17.106.367.222.593.348.226.127.488.243.787.349.299.106.66.16 1.086.16.452 0 .85-.074 1.196-.22a2.33 2.33 0 00.862-.613c.229-.262.401-.574.518-.936a3.85 3.85 0 00.174-1.18c0-.785-.227-1.397-.682-1.84-.456-.44-1.125-.662-2.008-.662-.698 0-1.398.126-2.103.379l-1.534-.439 1.196-6.994h7.114v1.046z" fill="#E65100"/><path d="M19.058 19.22a4.167 4.167 0 106.246-3.611m25.638 3.611a4.167 4.167 0 106.246-3.611" stroke="#371447"/></g></svg><svg width="82" height="82" viewBox="-1 -1 82 82" x="82" xmlns="http://www.w3.org/2000/svg"><g fill="none" fill-rule="evenodd"><path d="M0 0h80v80H0z"/><path stroke="#371447" d="M3.006 20.622v4.946l36.201 10.69 36.636-10.69V22.84"/><path d="M2.907 20.941l.879-1.338c.157-.025 11.667-2.517 34.529-7.478l35.891 8.492 1.644.974v1.306" stroke="#371447"/><path d="M56.813 17.21l-31.821 9.638c-.659.18-1.104.406-1.335.677-.23.272-.396.763-.495 1.473v40.487l-6.495-1.86V27.038c.102-.688.272-1.29.507-1.803.236-.514 1.02-.953 2.35-1.319l31.273-8.25 6.016 1.543z" fill="#FB8C00"/><path d="M21.34 17.098l31.82 9.638c.659.18 1.104.406 1.335.678.231.271.396.762.495 1.472v40.487l6.656-2.24V26.548c-.102-.688-.272-1.29-.507-1.803-.236-.513-1.02-.953-2.35-1.319l-31.272-8.25-6.177 1.922z" fill="#FB8C00"/><path d="M5.204 26.385v37.708l33.95 9.78 33.97-9.78V26.385l-33.96 9.783-33.96-9.783z" stroke="#371447"/><path d="M9.796 20.63c.178-2.675 1.178-5.6 3.001-8.772 1.823-3.173 3.687-5.237 5.595-6.191 12.311 6.506 18.916 10.643 19.814 12.411.897 1.769 1.1 2.596.606 2.482-.796 1.002-1.221 1.499-1.277 1.49-5.47-.803-9.8-1.067-12.989-1.26-3.238-.195-8.155-.248-14.75-.16z" fill="#FB8C00"/><path d="M66.967 20.63c-.178-2.675-1.178-5.6-3-8.772-1.823-3.173-3.688-5.237-5.595-6.191C46.06 12.173 39.456 16.31 38.558 18.078c-.898 1.769-.866 2.835.095 3.198.328.525.52.783.576.774 5.47-.803 9.8-1.067 12.989-1.26 3.238-.195 8.155-.248 14.75-.16z" fill="#FB8C00"/><path d="M35.957 22l-1.716-5.25c.93-.38 2.452-.562 4.564-.545 2.112.016 3.526.22 4.24.613l-1.924 5.183c-.408.32-1.192.48-2.35.48-1.158 0-2.096-.16-2.814-.48z" fill="#FB8C00"/><path d="M39.333 73.393V41.016v32.377z" stroke="#371447"/></g></svg><svg width="82" height="82" viewBox="-1 -1 82 82" y="82" xmlns="http://www.w3.org/2000/svg"><g fill="none" fill-rule="evenodd"><path d="M0 0h80v80H0z"/><path d="M63.646 43.57c5.6.007 4.74.003 6.272.027 1.532.023 2.4-.617 2.603-1.834l-.022-5.498c-.004-1.028.072-2.059-.47-3.007-1.152-2.014-3.689-2.713-5.665-1.561-1.977 1.152-2.645 3.718-1.493 5.732a4.178 4.178 0 003.06 2.078c2.968.019 5.195.028 6.684.027 1.612 0 1.752-1.327 1.801-2.493.033-.777-.063-4.295-.027-6.792" stroke="#371447"/><path d="M46.697 31.348c-.27-1.102-.845-2.048-1.66-2.702.375.041.781.087 1.224.138 9.418 1.084 16.89 6.508 17.695 16.877-.109 7.167-1.678 13.213-11.618 17.178-.036-.066.017.454 0 4.689-.011 2.685-8.825 2.685-8.832 0v-4.69h-8.667l.039 4.69c-.138 2.682-8.949 2.689-8.92 0v-4.69c-7.524-.579-12.122-2.97-14.519-8.982-.14.013-1.642.01-4.708 0-2.514.325-3.793-1.579-3.834-5.71-.042-4.131.97-6.407 3.038-6.828h4.138c2.097-6.561 5.265-10.665 12.514-12.534.022-1.5-.033-6.832 0-7.627 5.886-.14 8.164 2.84 8.164 7.627 4.556.008 6.673-.121 7.9-.248a5.134 5.134 0 00-2.067 2.812H34.01c-.898 0-1.626.728-1.626 1.626v.043c0 .898.728 1.626 1.626 1.626h14.889c.898 0 1.626-.728 1.626-1.626v-.043c0-.898-.728-1.626-1.626-1.626h-2.2z" stroke="#371447" fill="#C0D0D8"/><ellipse stroke="#371447" cx="17.871" cy="40.502" rx="1.814" ry="1.831"/><path d="M45.366 15.133c.283-.64.441-1.348.441-2.094 0-2.831-2.274-5.127-5.08-5.127-2.804 0-5.078 2.296-5.078 5.127 0 2.652 1.995 4.834 4.553 5.1" stroke="#371447"/><ellipse stroke="#371447" cx="44.719" cy="20.362" rx="5.079" ry="5.126"/><path d="M46.243 34.484l.129-.385a5.18 5.18 0 00.16-1.287c0-2.83-2.273-5.126-5.078-5.126-2.806 0-5.08 2.295-5.08 5.126 0 .405.047.798.134 1.175l.135.551" stroke="#371447"/></g></svg><svg width="82" height="82" viewBox="-1 -1 82 82" x="82" y="82" xmlns="http://www.w3.org/2000/svg"><g fill="none" fill-rule="evenodd"><path d="M0 3h80v80H0z"/><g transform="translate(4 4)"><path stroke="#371447" d="M20.075 18.048l16.61-16.594 16.61 16.594"/><g transform="translate(11 34)" fill="#E57373"><ellipse cx="17.74" cy="5.343" rx="5.326" ry="5.343"/><ellipse cx="31.931" cy="7.771" rx="5.326" ry="5.343"/><ellipse cx="6.31" cy="14.664" rx="3.551" ry="3.562"/><path d="M5.31 19.429h.57a5.31 5.31 0 015.31 5.31v7.71H0v-7.71a5.31 5.31 0 015.31-5.31zm39.907 1.214h.57a5.31 5.31 0 015.31 5.31v5.914h-11.19v-5.914a5.31 5.31 0 015.31-5.31z"/><path d="M18.115 12.49h1.058a7.08 7.08 0 017.08 7.08v13.124H11.035V19.569a7.08 7.08 0 017.08-7.08z"/><path d="M32.475 15.786h1.058a7.08 7.08 0 017.08 7.08v10.43H25.395v-10.43a7.08 7.08 0 017.08-7.08z"/><ellipse cx="44.667" cy="15.705" rx="3.551" ry="3.562"/></g><path d="M.544 18.055V68.45h71.542V18.055H.544zm6.402 6.395h59.478v37.974H6.946V24.45z" stroke="#371447" fill="#E57373"/><circle fill="#371447" cx="36.588" cy="2.029" r="2"/></g></g></svg><svg width="82" height="82" viewBox="-1 -1 82 82" x="164" xmlns="http://www.w3.org/2000/svg"><g fill="none" fill-rule="evenodd"><path d="M0 0h80v80H0z"/><path d="M17.177 51.963c3.316-2.113 5.016-4.717 5.1-7.812.085-3.095-1.46-5.652-4.634-7.67L45.331 17.74l28.274 19.04v28.924H17.177V51.963zm9.589-10.604V60.98h11.433V41.36H26.766z" fill="#A1887F"/><path d="M17.677 52.282v12.922h55.428V37.047L45.333 18.343 18.944 36.266c2.982 3.13 4.208 6.263 3.628 9.379-.582 3.122-2.222 5.349-4.895 6.637z" stroke="#371447"/><path d="M78.209 36.863L45.392 13.987 15.718 34.378c.765.273 1.328.545 1.699.823.381.287.977.624 1.78 1.007l26.054-17.81 30 20.19 2.958-1.725zm-35.084 2.815h22.932V55.03H43.125zm-15.859 2.181H37.7v18.622H27.266zm15.359 20.757h25.448m-50.159 0h6.482m14.909-20.894H25.66v-3.697h13.646" stroke="#371447"/><path stroke="#371447" d="M26.16 60.39h12.645v4.304H26.16z"/><path d="M24.474 20.193l.003-.997-1 .997h.997zm0 0h5.315l.665-1h-6.977l-.03 10.538 1.004-1.51.023-8.028zm-.997 0l1-.997-.003.997h-.997zm.997 0h5.315l.665-1h-6.977l-.03 10.538 1.004-1.51.023-8.028z" fill="#371447" fill-rule="nonzero"/><g transform="translate(3.07 34.581)" stroke="#371447"><ellipse cx="9.886" cy="9.431" rx="9.535" ry="9.431"/><path d="M10.056 31.123V6.941m-.338 6.63l-3.684-1.656m7.034-3.312l-3.35 2.65"/></g><path d="M58.852 20.642c.376-.891 1.275-.84 1.542-.84.401 0 .78.093 1.114.26.377-2.346 2.458-4.14 4.967-4.14 1.96 0 3.657 1.093 4.487 2.688a4.029 4.029 0 012.179-.634c2.196 0 3.976 1.737 3.976 3.879-.022 1.006-.475 1.788-1.357 2.347-2.732-.02-6.07-.042-10.013-.068M7.246 65.463h70.465" stroke="#371447"/><path d="M53.67 42.765l-5.545 4.929m11.663-5.309l-5.544 4.93m5.926 0l-5.544 4.929" stroke="#371447" stroke-linecap="square"/></g></svg><svg width="82" height="82" viewBox="-1 -1 82 82" x="164" y="82" xmlns="http://www.w3.org/2000/svg"><g transform="translate(2 2)" fill="none" fill-rule="evenodd"><path d="M.902 0H77v76H.902z"/><path d="M33.916 18.883c1.95-.716 5.665-1.113 11.148-1.19 5.526-.078 9.736.412 12.63 1.47a2.751 2.751 0 011.773 2.154l1.8 11.361a2.751 2.751 0 01-2.717 3.182H27.435a2.751 2.751 0 01-2.319-4.231l7.43-11.643a2.751 2.751 0 011.37-1.103z"/><path d="M28.483 56.627l21.385.025c.103-5.463 4.604-9.86 10.14-9.86 5.544 0 10.05 4.41 10.14 9.884l5.77.007.485-5.258c-.917-.93-1.329-1.74-1.162-2.473.851-3.735 1.164-7.483.86-9.093-1.574-8.338-3.882-14.067-6.887-17.176-3.169-3.193-6.507-5.437-10.015-6.737-5.335-1.977-20.184-2.038-24.962-.052-.54.224-.949.403-1.311.573-.99.467-1.675.905-2.348 1.516-.937.85-1.893 2.07-3.59 4.545-.57.83-5.157 7.68-7.138 10.586-.782 1.147-.947 1.218-9.062 4.323-5.657 2.165-8.38 3.69-8.655 5.217-.281 1.556-.235 3.867.103 9.11a1.25 1.25 0 01-.014.283c-.03.186-.098.363-.202.565-.056.108-.317.56-.274.483-.257.455-.36.77-.342 1.17.021.433.092 1.212.211 2.33l6.59.008c.128-5.44 4.62-9.81 10.139-9.81 5.527 0 10.023 4.382 10.139 9.834zm-26.73-3.542a8.233 8.233 0 010 0zm32.706-33.863c1.922-.678 5.43-1.045 10.56-1.118 5.286-.075 9.32.4 12.111 1.433a3.251 3.251 0 012.033 2.29c.47 1.956.787 3.459.954 4.513.156.985.415 3.062.778 6.238a3.251 3.251 0 01-3.23 3.62H28.74a3.251 3.251 0 01-2.741-5l6.799-10.659a3.251 3.251 0 011.66-1.317z" stroke="#371447" fill="#64B5F6"/><path d="M12.14 51.699a7.417 7.417 0 00-1.252 4.131c0 4.144 3.392 7.503 7.575 7.503 4.184 0 7.576-3.359 7.576-7.503 0-1.684-.56-3.24-1.507-4.491m29.271.36a7.417 7.417 0 00-1.25 4.131c0 4.144 3.391 7.503 7.575 7.503 4.183 0 7.575-3.359 7.575-7.503 0-1.684-.56-3.24-1.507-4.491" stroke="#371447"/><ellipse stroke="#371447" cx="18.463" cy="55.83" rx="3.788" ry="3.751"/><ellipse stroke="#371447" cx="60.128" cy="55.83" rx="3.788" ry="3.751"/><rect stroke="#371447" fill="#64B5F6" x="22.407" y="32.508" width="7.608" height="4.798" rx="2.399"/><path d="M3.339 44.968c.771.1 1.17.275 1.195.525.038.378.069 1.464.092 3.258-1.441.776-2.338 1.095-2.69.956m73.913-5.312c-1.235.092-2.029.085-2.382-.019-.153-.045-.216-1.26-.249-1.76-.028-.433.045-.77.218-1.01.288-.261.483-.39.585-.39.308.005.537.01.688.02" stroke="#371447"/></g></svg><svg width="82" height="82" viewBox="-1 -1 82 82" y="164" xmlns="http://www.w3.org/2000/svg"><g stroke="#371447" fill="none" fill-rule="evenodd"><path d="M23.437 71.574c0 4.156 3.722 7.525 8.314 7.525 4.591 0 8.314-3.369 8.314-7.525"/><path d="M40.065 50.07v21.22" stroke-linecap="square"/><path d="M74.588 45.825c0-19.392-15.801-35.113-35.294-35.113C19.802 10.712 4 26.432 4 45.825c4.245-1.726 7.927-1.834 11.047-.324 4.68 2.266 10.37-1.51 14.413-1.51 2.682 0 6.545 1.834 10.987 1.834 2.923 0 6.914-1.538 10.599-1.538 3.474 0 6.599 1.538 10.75 1.538 1.547 0 3.762-1.366 6.429-1.366 1.252 0 3.374.456 6.363 1.366z" fill="#4DD0E1"/><path d="M19.667 38.92a34.714 34.714 0 012.276-7.137c2.852-6.448 7.733-12.245 14.642-17.389m22 24.526a34.714 34.714 0 00-2.276-7.137c-2.853-6.448-7.733-12.245-14.642-17.389M26.788 7.658c1.356 0 2.455-1.019 2.455-2.275 0-.838-.818-2.299-2.455-4.383-1.636 2.084-2.455 3.545-2.455 4.383 0 1.256 1.1 2.275 2.455 2.275zm-20 11.047c1.356 0 2.455-1.019 2.455-2.276 0-.838-.818-2.298-2.455-4.382-1.636 2.084-2.455 3.544-2.455 4.382 0 1.257 1.1 2.276 2.455 2.276zm45.667 40.174c1.355 0 2.454-1.02 2.454-2.276 0-.838-.818-2.299-2.454-4.383C50.818 54.304 50 55.765 50 56.603c0 1.257 1.099 2.276 2.455 2.276zm22.666-40.174c1.356 0 2.455-1.019 2.455-2.276 0-.838-.818-2.298-2.455-4.382-1.636 2.084-2.454 3.544-2.454 4.382 0 1.257 1.099 2.276 2.454 2.276zm-21-11.047c1.356 0 2.455-1.019 2.455-2.275 0-.838-.818-2.299-2.455-4.383-1.636 2.084-2.454 3.545-2.454 4.383 0 1.256 1.099 2.275 2.454 2.275zm9.667 63.941c1.356 0 2.455-1.019 2.455-2.276 0-.837-.818-2.298-2.455-4.382-1.636 2.084-2.455 3.545-2.455 4.382 0 1.257 1.1 2.276 2.455 2.276zm12.667-12.72c1.355 0 2.454-1.02 2.454-2.276 0-.838-.818-2.299-2.454-4.383C74.818 54.304 74 55.765 74 56.603c0 1.257 1.099 2.276 2.455 2.276zm-73 0c1.355 0 2.454-1.02 2.454-2.276 0-.838-.818-2.299-2.454-4.383C1.818 54.304 1 55.765 1 56.603c0 1.257 1.099 2.276 2.455 2.276zm11 11.381c1.355 0 2.454-1.019 2.454-2.276 0-.837-.818-2.298-2.454-4.382C12.818 65.686 12 67.147 12 67.984c0 1.257 1.099 2.276 2.455 2.276zm13.333-11.381c1.356 0 2.455-1.02 2.455-2.276 0-.838-.818-2.299-2.455-4.383-1.636 2.084-2.455 3.545-2.455 4.383 0 1.257 1.1 2.276 2.455 2.276z"/></g></svg><svg width="82" height="82" viewBox="-1 -1 82 82" x="82" y="164" xmlns="http://www.w3.org/2000/svg"><g fill="none" fill-rule="evenodd"><path d="M0 0h80v80H0z"/><path fill="#81C784" d="M20.786 14.573l38.678-.176v25.745L39.66 58.73 20.787 39.826z"/><path fill="#371447" d="M20 14h1v22h-1zm39 0h1v16h-1zm-38 0h38v1H21z"/><path d="M20.586 23.935l-8.762 6.668M33.29 14.541l6.298-4.848 6.731 4.973m12.98 9.441l8.932 6.44M12.014 68.803V31.42l27.6 26.87L68.01 31.344v37.459z" stroke="#371447"/><path d="M37.324 33.526a4.938 4.938 0 01-1.389-.958l-.107-.107.084-.127.582-.875a.785.785 0 01.264-.248.7.7 0 01.356-.098c.15 0 .302.051.457.148.129.081.276.176.44.285.159.105.34.21.544.316.144.074.309.135.496.181l.261-3.113c-.32-.096-.636-.205-.949-.328a3.785 3.785 0 01-1.007-.582 2.755 2.755 0 01-.735-.933c-.188-.38-.28-.846-.28-1.4a3.247 3.247 0 01.967-2.286c.313-.31.697-.566 1.152-.766.414-.182.88-.292 1.4-.331l.07-.817a.727.727 0 01.203-.445.652.652 0 01.493-.205h.897l-.133 1.559a4.28 4.28 0 011.296.456c.407.23.762.49 1.064.78l.111.105-.084.13-.463.709c-.082.12-.168.212-.258.277a.614.614 0 01-.367.112.833.833 0 01-.349-.091c-.107-.05-.229-.11-.366-.181a8.257 8.257 0 00-.44-.209 2.664 2.664 0 00-.307-.113l-.238 2.842c.324.103.645.215.963.336.376.142.716.328 1.019.555.31.233.56.522.752.868.195.352.291.787.291 1.303 0 .502-.083.975-.25 1.417a3.496 3.496 0 01-.732 1.178 3.7 3.7 0 01-1.18.828 4.531 4.531 0 01-1.432.366l-.08.985a.737.737 0 01-.2.438.646.646 0 01-.495.21h-.897l.14-1.685a5.894 5.894 0 01-1.564-.486zm4.163-1.917c.245-.262.368-.605.368-1.04 0-.17-.03-.315-.086-.436a1.046 1.046 0 00-.249-.333 1.704 1.704 0 00-.398-.266 4.094 4.094 0 00-.31-.136l-.222 2.67c.39-.083.688-.237.897-.46zm-2.246-7.151c-.18.077-.325.17-.436.277a.97.97 0 00-.236.348c-.05.131-.076.27-.076.418 0 .171.028.319.084.444.057.128.136.241.24.341.108.105.236.199.386.281.091.05.187.098.288.142l.198-2.384c-.17.033-.32.078-.448.133z" fill="#371447"/><path d="M27.929 40.481h23.764M30.072 43.72h19.527M34.57 46.958h10.827" stroke="#371447"/></g></svg><svg width="82" height="82" viewBox="-1 -1 82 82" x="164" y="164" xmlns="http://www.w3.org/2000/svg"><g fill="none" fill-rule="evenodd"><path d="M0 0h80v80H0z"/><g transform="translate(1 15.362)"><path d="M44.285 33.24c10.984 3.827 13.462 4.688 4.982 8.064-.036-.064.017.45 0 4.64-.011 2.657-8.747 2.657-8.754 0v-4.64h-8.59l.038 4.64c-.137 2.654-8.87 2.66-8.84 0v-4.64c-7.46-.573-12.017-2.939-14.392-8.887-.139.012-1.628.008-4.667 0-2.492.32-3.759-1.563-3.8-5.65-.042-4.088.962-6.34 3.011-6.756h4.102c2.078-6.493 5.219-10.553 12.404-12.402.021-1.485-.033-6.761 0-7.547 5.834-.138 8.091 2.81 8.091 7.547.122.071.362.091.347.208-.53 4.114-7.233 1.733-6.887 9.447.125 2.797 2.344 5.747 6.432 8.623 4.088 2.877 5.54 3.528 16.523 7.354zM15.104 21.015c.993 0 1.798-.81 1.798-1.811 0-1-.805-1.812-1.798-1.812s-1.798.811-1.798 1.812c0 1 .805 1.811 1.798 1.811z" fill="#43A047"/><path d="M60.783 24.308a36.468 36.468 0 01-.148 2.897c-.555 5.821-2.888 10.723-11.368 14.1-.036-.065.017.45 0 4.64-.011 2.656-8.747 2.656-8.754 0v-4.64h-8.59l.038 4.64c-.137 2.653-8.87 2.66-8.84 0v-4.64c-7.46-.574-12.017-2.94-14.392-8.888-.139.012-1.628.008-4.667 0-2.492.32-3.759-1.563-3.8-5.65-.042-4.088.962-6.34 3.011-6.756h4.102c2.078-6.493 5.219-10.553 12.404-12.402.021-1.485-.033-6.761 0-7.547 5.834-.138 8.091 2.81 8.091 7.547 12.932.022 5.46-.057 15.373 0 5.215.03 9.576 1.81 12.654 4.984" stroke="#371447"/><ellipse stroke="#371447" cx="15.104" cy="19.203" rx="1.798" ry="1.812"/><rect stroke="#371447" x="29.988" y="10.645" width="16.981" height="2.261" rx="1.13"/></g><path d="M42.54 40.194c-.801.677-1.369 1.53-1.642 2.507-.924 4.023-2.895 5.64-7.093 5.378 6.079 6.615 14.148 6.17 18.164-.122.555-.87-.746-3.928-3.27-3.672-9.21.933-5.48-4.664-6.158-4.091z" fill="#43A047"/><path d="M50.177 38.785l3.024 3.332L77.37 25.604a3.678 3.678 0 00.792-5.341l-.068-.082a3.895 3.895 0 00-5.49-.447L50.178 38.785z" stroke="#371447"/><path d="M39.119 51.839c5.262.085 8.59-1.52 9.983-4.815" stroke="#371447" stroke-width="1.083"/><path d="M59.692 31.057c2.217 2.293 2.273 4.174 2.309 4.638" stroke="#371447"/><path d="M34.247 47.836c.882 1.366 6.044 7.162 12.837 4.16 4.53-2 6.53-5.237 6.004-9.71L50.25 38.92c-4.309-.723-6.996-.024-8.06 2.095-3.951 7.872-3.795 6.59-7.942 6.822z" stroke="#371447" stroke-width="1.083"/></g></svg><svg width="82" height="82" viewBox="-1 -1 82 82" x="246" xmlns="http://www.w3.org/2000/svg"><g fill="none" fill-rule="evenodd"><path d="M0 0h80v80H0z"/><path d="M40.22 14.62c0 3.225 2.597 5.84 5.802 5.84 3.204 0 5.801-2.615 5.801-5.84 0-3.01-2.262-5.488-5.169-5.805-.138-.015-1.363.71-3.675 2.175l-2.76 3.63z" fill="#FFB74D"/><path d="M15.933 33.354c1.142-2.125 1.59-3.774 1.346-4.948-.244-1.174.648-1.29 2.676-.347-.054 2.65-.208 4.028-.465 4.13-.256.103-1.442.491-3.557 1.165z" stroke="#371447" fill="#FFB74D"/><path d="M69.432 75.757c.016-.403-.092-.603-.246-.859-6.536-10.794-17.41-13.567-25.044-17.544-5.103-2.658-8.634-5.98-10.59-9.965a9.736 9.736 0 00.426-2.796 12.46 12.46 0 00-6.197-10.777c-1.644-2.6-4.939-6.582-6.668-7.213-1.729-.63-.76 2.957-1.593 5.682a12.484 12.484 0 00-9.931 8.643c-.29.94-.47 1.928-.528 2.948-1.339.832-2.489 1.897-3.027 2.529-.487.572-.795 1.014-.795 2.247 0 3.715 3.634 6.206 9.492 6.332a14.49 14.49 0 001.646-.044 21.401 21.401 0 002.99 1.447c-2 5.811-1.728 12.245.652 18.335.225.578.528 1.17.527 1.689 2.887-2.03 9.462-1.552 19.724 1.431s19.983 2.288 29.162-2.085z" fill="#FFB74D"/><path d="M69.432 75.757c.016-.403-.092-.603-.246-.859-6.536-10.794-17.41-13.567-25.044-17.544-5.103-2.658-8.634-5.98-10.59-9.965a9.736 9.736 0 00.426-2.796 12.46 12.46 0 00-6.197-10.777c-1.644-2.6-4.939-6.582-6.668-7.213-1.729-.63-.76 2.957-1.593 5.682a12.484 12.484 0 00-9.931 8.643c-.29.94-.47 1.928-.528 2.948-1.339.832-2.489 1.897-3.027 2.529-.487.572-.795 1.014-.795 2.247 0 3.715 3.634 6.206 9.492 6.332a14.49 14.49 0 001.646-.044 21.401 21.401 0 002.99 1.447c-2 5.811-1.728 12.245.652 18.335.225.578.528 1.17.527 1.689" stroke="#371447"/><ellipse stroke="#371447" fill="#FFB74D" cx="21.076" cy="58.43" rx="1.882" ry="1.894"/><ellipse fill="#371447" cx="13.236" cy="43.911" rx="1.254" ry="1.263"/><path d="M6.204 48.978c.706 0 2.073-.91 2.073-1.649 0-.738-1.21-1.209-1.916-1.209-.707 0-1.28.599-1.28 1.338 0 .738.417 1.52 1.123 1.52z" fill="#371447"/><path d="M69.425 74.874c5.627-9.469 7.217-21.645 1.145-38.374a55.714 55.714 0 00-1.547-3.838c-1.257-3.712-2.793-7.546-4.552-11.07a10.7 10.7 0 00.147-1.77c0-2.923-1.183-5.594-3.138-7.642C63.65 5.747 56.682-.69 56.306.864c-.353 1.46-.081 3.429-2.254 7.47a14.225 14.225 0 00-2.298-.186c-5.204 0-9.687 2.805-11.713 6.84-6.605-.352-11.158.119-13.658 1.413-1.247.583-3.204 7.996 4.151 11.599 4.716 2.043 4.884.049 12.955 0 .66.502 1.523 1.197 2.137 2.088 6.693 11.028 2.39 17.943-12.907 20.745C17.354 53.647 8.375 61.968 5.782 75.796l-.028.928" stroke="#371447"/><path d="M69.99 35.864C64.8 38.848 61 40.4 58.586 40.519c-2.414.12-5.515-.44-10.17-1.943" stroke="#371447"/><ellipse fill="#371447" cx="45.29" cy="15.742" rx="1.254" ry="1.263"/><ellipse stroke="#371447" fill="#FFB74D" cx="58.882" cy="42.894" rx="1.882" ry="1.894"/><path d="M27.344 20.055c.983 0 2.886-1.211 2.886-2.195 0-.983-1.685-1.61-2.668-1.61-.984 0-1.781.798-1.781 1.781 0 .984.579 2.024 1.563 2.024z" fill="#371447"/></g></svg></svg>